<svg width="252" height="62" viewBox="0 0 252 62" fill="none" xmlns="http://www.w3.org/2000/svg">
<path d="M1.67309 4.43569C51.4635 7.18971 103.165 2.73483 246.42 1M3.03499 2.91817C81.7536 5.82916 159.306 3.82749 247.324 4.05032M245.754 4.94263C247.018 16.6508 252.05 31.388 250.803 61M247.987 2.4808C250.038 22.0601 246.92 41.6922 247.623 56.4345M245.332 60.7482C176.73 58.0813 111.328 57.6549 1 57.5755M248.647 56.9944C167.868 58.7529 85.7369 57.4586 4.68517 57.2081M1.95959 55.7716C5.46117 43.7856 1.8451 35.4446 5.35827 5.95296M2.67332 58.0507C2.67039 40.779 4.76484 21.8856 3.46992 3.94118" stroke="black" stroke-width="2" stroke-linecap="round"/>
<path d="M21.7031 25.4219C21.625 25.1484 21.4688 24.9629 21.2344 24.8652C21.0195 24.7676 20.7754 24.7188 20.502 24.7188C20.248 24.6992 19.9941 24.709 19.7402 24.748C19.4863 24.7871 19.291 24.8066 19.1543 24.8066C18.8223 24.7871 18.2461 24.748 17.4258 24.6895C16.6055 24.6309 15.7168 24.5723 14.7598 24.5137C13.8223 24.4355 12.9434 24.3672 12.123 24.3086C11.3027 24.2305 10.7266 24.1816 10.3945 24.1621C10.3945 24.123 10.3848 24.0254 10.3652 23.8691C10.3457 23.7129 10.3359 23.6055 10.3359 23.5469C10.3359 23.2734 10.3555 23.0293 10.3945 22.8145C10.4531 22.5996 10.6484 22.4336 10.9805 22.3164C12.8164 22.3555 14.623 22.3457 16.4004 22.2871C18.1973 22.2285 19.9844 22.1504 21.7617 22.0527C23.5586 21.9355 25.3457 21.8281 27.123 21.7305C28.9199 21.6328 30.7266 21.584 32.543 21.584C32.543 22.3262 32.3672 22.873 32.0156 23.2246C31.6641 23.5566 31.2246 23.7812 30.6973 23.8984C30.1895 24.0156 29.623 24.0645 28.998 24.0449C28.373 24.0254 27.7676 24.0352 27.1816 24.0742C26.6152 24.1133 26.1074 24.2305 25.6582 24.4258C25.2285 24.6016 24.9453 24.9336 24.8086 25.4219C24.7891 25.5391 24.7695 25.7637 24.75 26.0957C24.7305 26.4277 24.7109 26.7793 24.6914 27.1504C24.6914 27.5215 24.6816 27.873 24.6621 28.2051C24.6621 28.5176 24.6621 28.7422 24.6621 28.8789C24.6621 29.9922 24.7988 31.0957 25.0723 32.1895C25.3652 33.2637 25.6777 34.3379 26.0098 35.4121C26.3613 36.4668 26.6738 37.5312 26.9473 38.6055C27.2402 39.6602 27.3867 40.7344 27.3867 41.8281C27.3867 42.6484 26.918 43.0586 25.9805 43.0586C25.4141 43.0586 24.9062 42.668 24.457 41.8867C24.0273 41.1055 23.6465 40.1094 23.3145 38.8984C23.002 37.6875 22.7383 36.3691 22.5234 34.9434C22.3281 33.5176 22.1621 32.1504 22.0254 30.8418C21.9082 29.5332 21.8203 28.3809 21.7617 27.3848C21.7227 26.3887 21.7031 25.7344 21.7031 25.4219ZM40.5117 17.2773C40.6289 16.9258 40.7949 16.7207 41.0098 16.6621C41.2441 16.6035 41.5078 16.5742 41.8008 16.5742C42.25 16.5742 42.748 16.877 43.2949 17.4824C43.8613 18.0684 44.4375 18.8594 45.0234 19.8555C45.6094 20.8516 46.1953 21.9941 46.7812 23.2832C47.3867 24.5723 47.9629 25.9102 48.5098 27.2969C49.0762 28.6641 49.6035 30.0312 50.0918 31.3984C50.5801 32.7656 51 34.0254 51.3516 35.1777C51.7227 36.3105 52.0059 37.2969 52.2012 38.1367C52.3965 38.9766 52.4941 39.5527 52.4941 39.8652C52.4941 40.1777 52.416 40.4805 52.2598 40.7734C52.123 41.0469 51.8691 41.1836 51.498 41.1836C51.2637 41.1836 51.0586 41.1152 50.8828 40.9785C50.7266 40.8223 50.5898 40.6367 50.4727 40.4219C50.3555 40.207 50.248 39.9922 50.1504 39.7773C50.0527 39.5625 49.9648 39.377 49.8867 39.2207C49.8086 39.0059 49.6426 38.5957 49.3887 37.9902C49.1543 37.3848 48.9004 36.75 48.627 36.0859C48.373 35.4219 48.1289 34.7969 47.8945 34.2109C47.6602 33.625 47.4941 33.2051 47.3965 32.9512C46.0293 32.7168 44.6523 32.502 43.2656 32.3066C41.8984 32.0918 40.4531 31.8867 38.9297 31.6914H38.6074C37.9043 34.7188 37.2793 37.1113 36.7324 38.8691C36.2051 40.627 35.7559 41.877 35.3848 42.6191C35.0332 43.3613 34.75 43.6641 34.5352 43.5273C34.3398 43.4102 34.2031 42.9707 34.125 42.209C34.0664 41.4277 34.0762 40.3926 34.1543 39.1035C34.252 37.8145 34.418 36.3984 34.6523 34.8555C34.9062 33.293 35.209 31.6621 35.5605 29.9629C35.9121 28.2637 36.332 26.623 36.8203 25.041C37.3281 23.459 37.8848 21.9941 38.4902 20.6465C39.1152 19.2793 39.7891 18.1562 40.5117 17.2773ZM39.8086 27.5898C39.8086 28.3125 40.043 28.8496 40.5117 29.2012C40.9805 29.5332 41.5469 29.748 42.2109 29.8457C42.875 29.9434 43.5684 29.9824 44.291 29.9629C45.0332 29.9434 45.668 29.9336 46.1953 29.9336C46.1953 29.1523 46.0684 28.3125 45.8145 27.4141C45.5605 26.4961 45.2383 25.5879 44.8477 24.6895C44.457 23.791 44.0371 22.9219 43.5879 22.082C43.1582 21.2227 42.7578 20.4512 42.3867 19.7676C42.1719 19.9824 41.9375 20.3828 41.6836 20.9688C41.4492 21.5352 41.2051 22.1797 40.9512 22.9023C40.7168 23.6055 40.502 24.2988 40.3066 24.9824C40.1113 25.666 39.9648 26.2227 39.8672 26.6523C39.8672 26.7109 39.8574 26.8672 39.8379 27.1211C39.8184 27.3555 39.8086 27.5117 39.8086 27.5898ZM58.7051 41.7402C58.8027 41.2715 59.0469 40.8906 59.4375 40.5977C59.8477 40.2852 60.3066 40.002 60.8145 39.748C61.3418 39.4941 61.8887 39.2598 62.4551 39.0449C63.0215 38.8105 63.5391 38.5664 64.0078 38.3125C64.4961 38.0586 64.8965 37.7656 65.209 37.4336C65.5215 37.082 65.6777 36.6621 65.6777 36.1738C65.6777 35.5488 65.5117 35.0312 65.1797 34.6211C64.8672 34.2109 64.4375 33.8594 63.8906 33.5664C63.3633 33.2734 62.7578 33.0293 62.0742 32.834C61.3906 32.6387 60.6875 32.4434 59.9648 32.248C59.2617 32.0332 58.5684 31.8086 57.8848 31.5742C57.2012 31.3203 56.5859 31.0078 56.0391 30.6367C55.5117 30.2656 55.082 29.8164 54.75 29.2891C54.4375 28.7617 54.2812 28.1074 54.2812 27.3262C54.2812 26.6816 54.4082 26.0762 54.6621 25.5098C54.9355 24.9238 55.2871 24.377 55.7168 23.8691C56.166 23.3418 56.6738 22.8633 57.2402 22.4336C57.8262 22.0039 58.4316 21.6426 59.0566 21.3496C59.7012 21.0566 60.3457 20.832 60.9902 20.6758C61.6348 20.5 62.2305 20.4121 62.7773 20.4121H63.0996C63.2754 20.4707 63.5098 20.5684 63.8027 20.7051C64.0957 20.8418 64.3789 20.9785 64.6523 21.1152C64.9258 21.2324 65.1602 21.3496 65.3555 21.4668C65.5508 21.5645 65.6484 21.623 65.6484 21.6426V22.3164C65.2773 22.3555 64.7988 22.4336 64.2129 22.5508C63.627 22.6484 63.0117 22.7852 62.3672 22.9609C61.7227 23.1367 61.0684 23.3613 60.4043 23.6348C59.7402 23.8887 59.1445 24.1914 58.6172 24.543C58.0898 24.8945 57.6602 25.3047 57.3281 25.7734C56.9961 26.2227 56.8301 26.7402 56.8301 27.3262C56.8301 28.166 57.123 28.8301 57.709 29.3184C58.2949 29.7871 59.0273 30.1777 59.9062 30.4902C60.7852 30.8027 61.7422 31.0859 62.7773 31.3398C63.832 31.5742 64.7988 31.8672 65.6777 32.2188C66.5566 32.5508 67.2891 33 67.875 33.5664C68.4609 34.1133 68.7539 34.8555 68.7539 35.793C68.7539 36.3008 68.5977 36.8379 68.2852 37.4043C67.9922 37.9512 67.5918 38.498 67.084 39.0449C66.5957 39.5723 66.0391 40.0801 65.4141 40.5684C64.7891 41.0566 64.1445 41.4863 63.4805 41.8574C62.8359 42.209 62.2012 42.502 61.5762 42.7363C60.9512 42.9512 60.3945 43.0586 59.9062 43.0586C59.75 43.0586 59.584 43.0391 59.4082 43C59.2324 42.9609 59.0762 42.9023 58.9395 42.8242C58.8223 42.7266 58.7246 42.5898 58.6465 42.4141C58.5879 42.2383 58.6074 42.0137 58.7051 41.7402ZM69.9551 22.7266C69.9551 22.3555 69.9453 21.9551 69.9258 21.5254C69.9062 21.0957 69.9355 20.6953 70.0137 20.3242C70.1113 19.9531 70.2676 19.6504 70.4824 19.416C70.7168 19.1621 71.0879 19.0352 71.5957 19.0352C71.9668 19.543 72.2012 20.1777 72.2988 20.9395C72.416 21.6816 72.4941 22.4727 72.5332 23.3125C72.5723 24.1328 72.6113 24.9531 72.6504 25.7734C72.709 26.5938 72.875 27.3164 73.1484 27.9414C73.168 28.0195 73.2559 28.1367 73.4121 28.293C73.5879 28.4297 73.7051 28.5176 73.7637 28.5566C74.3496 28.0488 74.877 27.5215 75.3457 26.9746C75.834 26.4277 76.3125 25.9004 76.7812 25.3926C77.25 24.8652 77.7188 24.3672 78.1875 23.8984C78.6562 23.4297 79.1641 23.0195 79.7109 22.668C80.2773 22.3164 80.9023 22.043 81.5859 21.8477C82.2891 21.6328 83.0801 21.5254 83.959 21.5254C83.959 21.9941 83.793 22.4629 83.4609 22.9316C83.1289 23.4004 82.709 23.8789 82.2012 24.3672C81.6934 24.8359 81.1367 25.3242 80.5312 25.832C79.9258 26.3203 79.3398 26.8281 78.7734 27.3555C78.207 27.8633 77.6992 28.3809 77.25 28.9082C76.8008 29.416 76.4785 29.9336 76.2832 30.4609C76.6152 30.5391 77.1621 30.7344 77.9238 31.0469C78.7051 31.3398 79.584 31.7109 80.5605 32.1602C81.5566 32.5898 82.582 33.0586 83.6367 33.5664C84.6914 34.0742 85.6582 34.582 86.5371 35.0898C87.416 35.5781 88.1289 36.0469 88.6758 36.4961C89.2422 36.9258 89.5254 37.2773 89.5254 37.5508C89.5254 37.6094 89.5254 37.7363 89.5254 37.9316C89.5254 38.1074 89.5059 38.293 89.4668 38.4883C89.4473 38.6836 89.3887 38.8594 89.291 39.0156C89.1934 39.1523 89.0371 39.2207 88.8223 39.2207C88.002 39.2012 87.2305 39.0547 86.5078 38.7812C85.7852 38.4883 85.082 38.1367 84.3984 37.7266C83.7148 37.2969 83.0312 36.8574 82.3477 36.4082C81.6836 35.9395 81 35.5 80.2969 35.0898C79.5938 34.6602 78.8613 34.3184 78.0996 34.0645C77.3574 33.791 76.5469 33.6348 75.668 33.5957C75.375 34.0645 75.248 34.5234 75.2871 34.9727C75.3262 35.4023 75.4531 35.8418 75.668 36.291C75.9023 36.7207 76.1758 37.1699 76.4883 37.6387C76.8008 38.0879 77.0742 38.5664 77.3086 39.0742C77.543 39.5625 77.6992 40.0801 77.7773 40.627C77.8555 41.1738 77.7676 41.75 77.5137 42.3555C77.4746 42.4141 77.3965 42.4824 77.2793 42.5605C77.1816 42.6191 77.0645 42.6875 76.9277 42.7656C76.8105 42.8438 76.6836 42.9023 76.5469 42.9414C76.4102 42.9805 76.3223 43 76.2832 43C76.0293 43 75.7461 42.7559 75.4336 42.2676C75.1406 41.7793 74.8184 41.1152 74.4668 40.2754C74.1348 39.4355 73.7832 38.4785 73.4121 37.4043C73.0605 36.3105 72.709 35.1875 72.3574 34.0352C72.0254 32.8633 71.7129 31.6914 71.4199 30.5195C71.1465 29.3281 70.8926 28.2246 70.6582 27.209C70.4434 26.1738 70.2676 25.2656 70.1309 24.4844C70.0137 23.7031 69.9551 23.1172 69.9551 22.7266ZM104.145 32.9512C104.145 32.2871 104.232 31.5645 104.408 30.7832C104.604 30.002 104.867 29.2207 105.199 28.4395C105.531 27.6387 105.932 26.8672 106.4 26.125C106.869 25.3633 107.396 24.6992 107.982 24.1328C108.568 23.5469 109.203 23.0879 109.887 22.7559C110.57 22.4043 111.293 22.2285 112.055 22.2285C112.68 22.2285 113.266 22.3164 113.812 22.4922C114.359 22.6484 114.828 22.8926 115.219 23.2246C115.609 23.5566 115.912 23.9766 116.127 24.4844C116.361 24.9727 116.479 25.5586 116.479 26.2422C116.049 26.2422 115.697 26.1348 115.424 25.9199C115.17 25.6855 114.926 25.4316 114.691 25.1582C114.477 24.8848 114.232 24.6406 113.959 24.4258C113.705 24.2109 113.373 24.1035 112.963 24.1035C112.357 24.1035 111.771 24.2598 111.205 24.5723C110.658 24.8848 110.141 25.3047 109.652 25.832C109.184 26.3594 108.764 26.9551 108.393 27.6191C108.041 28.2832 107.729 28.957 107.455 29.6406C107.201 30.3047 106.996 30.959 106.84 31.6035C106.703 32.248 106.635 32.8047 106.635 33.2734C106.635 34.2891 106.781 35.2461 107.074 36.1445C107.387 37.0234 107.826 37.7949 108.393 38.459C108.959 39.1035 109.662 39.6113 110.502 39.9824C111.342 40.3535 112.299 40.5391 113.373 40.5391C114.057 40.5391 114.701 40.4414 115.307 40.2461C115.932 40.0312 116.527 39.8066 117.094 39.5723C117.68 39.3184 118.256 39.084 118.822 38.8691C119.389 38.6543 119.955 38.5469 120.521 38.5469C120.6 38.5469 120.707 38.5566 120.844 38.5762C121 38.5762 121.137 38.5957 121.254 38.6348C121.391 38.6738 121.508 38.7422 121.605 38.8398C121.703 38.918 121.752 39.0449 121.752 39.2207C121.752 39.9238 121.479 40.5195 120.932 41.0078C120.404 41.4961 119.77 41.8965 119.027 42.209C118.285 42.502 117.514 42.7168 116.713 42.8535C115.912 42.9902 115.258 43.0586 114.75 43.0586C113.266 43.0586 111.879 42.8242 110.59 42.3555C109.301 41.8672 108.178 41.1836 107.221 40.3047C106.264 39.4258 105.512 38.3711 104.965 37.1406C104.418 35.8906 104.145 34.4941 104.145 32.9512ZM122.396 34.8555C122.396 33.8594 122.523 32.8535 122.777 31.8379C123.051 30.8027 123.422 29.8164 123.891 28.8789C124.379 27.9414 124.965 27.0723 125.648 26.2715C126.332 25.4512 127.084 24.748 127.904 24.1621C128.744 23.5566 129.652 23.0879 130.629 22.7559C131.605 22.4043 132.631 22.2285 133.705 22.2285C134.779 22.2285 135.707 22.4434 136.488 22.873C137.289 23.2832 137.953 23.8398 138.48 24.543C139.008 25.2461 139.398 26.0566 139.652 26.9746C139.906 27.873 140.033 28.791 140.033 29.7285C140.033 31.3691 139.789 32.9902 139.301 34.5918C138.812 36.1738 138.09 37.5996 137.133 38.8691C136.176 40.1191 134.984 41.1348 133.559 41.916C132.152 42.6777 130.531 43.0586 128.695 43.0586C127.602 43.0586 126.654 42.8145 125.854 42.3262C125.072 41.8184 124.418 41.1738 123.891 40.3926C123.383 39.5918 123.002 38.7129 122.748 37.7559C122.514 36.7793 122.396 35.8125 122.396 34.8555ZM124.887 35.5C124.887 36.0273 124.975 36.584 125.15 37.1699C125.326 37.7559 125.57 38.293 125.883 38.7812C126.195 39.2695 126.586 39.6797 127.055 40.0117C127.543 40.3438 128.09 40.5098 128.695 40.5098C130.004 40.5098 131.195 40.2168 132.27 39.6309C133.344 39.0254 134.271 38.2539 135.053 37.3164C135.834 36.3594 136.439 35.2949 136.869 34.123C137.299 32.9512 137.514 31.7891 137.514 30.6367C137.514 29.9727 137.494 29.2891 137.455 28.5859C137.416 27.8828 137.289 27.248 137.074 26.6816C136.859 26.0957 136.518 25.627 136.049 25.2754C135.6 24.9043 134.945 24.7188 134.086 24.7188C133.812 24.7188 133.441 24.7285 132.973 24.748C132.523 24.7676 132.074 24.8262 131.625 24.9238C131.176 25.002 130.775 25.1289 130.424 25.3047C130.092 25.4805 129.926 25.7246 129.926 26.0371C129.926 26.0762 129.955 26.1641 130.014 26.3008C130.092 26.418 130.17 26.5449 130.248 26.6816C130.326 26.8184 130.395 26.9551 130.453 27.0918C130.512 27.209 130.541 27.2871 130.541 27.3262C130.541 27.3652 130.463 27.4727 130.307 27.6484C130.15 27.8047 130.023 27.9023 129.926 27.9414C128.949 28.1953 128.129 28.5176 127.465 28.9082C126.82 29.2793 126.303 29.7676 125.912 30.373C125.541 30.9785 125.277 31.7012 125.121 32.541C124.965 33.3809 124.887 34.3672 124.887 35.5ZM141.82 30.4609C141.82 30.2266 141.82 29.8457 141.82 29.3184C141.84 28.7715 141.85 28.2051 141.85 27.6191C141.85 27.0137 141.85 26.4473 141.85 25.9199C141.869 25.3926 141.879 25.0215 141.879 24.8066C141.898 24.6699 141.947 24.4648 142.025 24.1914C142.104 23.8984 142.191 23.6152 142.289 23.3418C142.406 23.0684 142.553 22.834 142.729 22.6387C142.924 22.4238 143.158 22.3164 143.432 22.3164C144.076 22.3164 144.682 22.4922 145.248 22.8438C145.814 23.1953 146.361 23.6641 146.889 24.25C147.416 24.8164 147.914 25.4512 148.383 26.1543C148.871 26.8574 149.35 27.5605 149.818 28.2637C150.287 28.9473 150.746 29.6016 151.195 30.2266C151.645 30.832 152.094 31.3203 152.543 31.6914C153.031 31.4766 153.412 31.0859 153.686 30.5195C153.959 29.9336 154.184 29.2695 154.359 28.5273C154.535 27.7656 154.691 26.9844 154.828 26.1836C154.984 25.3633 155.189 24.6113 155.443 23.9277C155.697 23.2441 156.029 22.6875 156.439 22.2578C156.869 21.8086 157.455 21.584 158.197 21.584C159.076 21.584 159.867 21.9258 160.57 22.6094C161.293 23.293 161.938 24.1621 162.504 25.2168C163.07 26.2715 163.549 27.4434 163.939 28.7324C164.35 30.0215 164.691 31.2617 164.965 32.4531C165.238 33.6445 165.443 34.7188 165.58 35.6758C165.717 36.6328 165.785 37.3164 165.785 37.7266C165.785 37.9023 165.775 38.0977 165.756 38.3125C165.736 38.5078 165.688 38.6934 165.609 38.8691C165.531 39.0254 165.404 39.1523 165.229 39.25C165.053 39.3281 164.799 39.3184 164.467 39.2207C164.369 39.2012 164.252 39.1523 164.115 39.0742C163.998 38.9766 163.871 38.8594 163.734 38.7227C163.598 38.5859 163.48 38.459 163.383 38.3418C163.285 38.2051 163.236 38.0879 163.236 37.9902C163.061 37.0332 162.865 35.9688 162.65 34.7969C162.436 33.625 162.162 32.4434 161.83 31.252C161.518 30.041 161.117 28.8691 160.629 27.7363C160.141 26.6035 159.535 25.627 158.812 24.8066C158.246 25.1191 157.797 25.5977 157.465 26.2422C157.152 26.8672 156.889 27.5605 156.674 28.3223C156.459 29.0645 156.264 29.8262 156.088 30.6074C155.912 31.3887 155.678 32.1016 155.385 32.7461C155.092 33.3711 154.721 33.8887 154.271 34.2988C153.822 34.709 153.217 34.9141 152.455 34.9141C151.928 34.9141 151.41 34.748 150.902 34.416C150.414 34.0645 149.936 33.6152 149.467 33.0684C148.998 32.502 148.539 31.8867 148.09 31.2227C147.66 30.5391 147.23 29.875 146.801 29.2305C146.391 28.5664 145.98 27.9512 145.57 27.3848C145.18 26.8184 144.779 26.3691 144.369 26.0371C144.213 26.6426 144.086 27.1797 143.988 27.6484C143.91 28.0977 143.842 28.5371 143.783 28.9668C143.744 29.3965 143.715 29.8359 143.695 30.2852C143.695 30.7344 143.695 31.2324 143.695 31.7793C143.695 32.5996 143.764 33.4199 143.9 34.2402C144.037 35.041 144.184 35.8418 144.34 36.6426C144.496 37.4434 144.643 38.2539 144.779 39.0742C144.936 39.875 145.014 40.6855 145.014 41.5059V41.7402C144.975 41.7988 144.896 41.8965 144.779 42.0332C144.662 42.1504 144.535 42.2773 144.398 42.4141C144.281 42.5508 144.154 42.6777 144.018 42.7949C143.881 42.8926 143.783 42.9609 143.725 43C143.705 43.0195 143.666 43.0293 143.607 43.0293C143.549 43.0488 143.49 43.0586 143.432 43.0586C143.393 43.0586 143.344 43.0488 143.285 43.0293C143.227 43.0098 143.178 43 143.139 43C143.002 41.8672 142.855 40.793 142.699 39.7773C142.543 38.7617 142.396 37.7559 142.26 36.7598C142.143 35.7637 142.035 34.7578 141.938 33.7422C141.859 32.7266 141.82 31.6328 141.82 30.4609ZM166.898 22.3164C166.898 22.1602 166.908 21.9062 166.928 21.5547C166.928 21.1836 166.928 20.8027 166.928 20.4121C166.928 20.002 166.938 19.6211 166.957 19.2695C166.957 18.8984 166.957 18.6445 166.957 18.5078C167.172 18.0977 167.504 17.8047 167.953 17.6289C168.422 17.4336 168.92 17.3066 169.447 17.248C169.994 17.1699 170.521 17.1406 171.029 17.1602C171.557 17.1797 171.986 17.1895 172.318 17.1895C172.748 17.1895 173.246 17.209 173.812 17.248C174.398 17.2871 174.975 17.3652 175.541 17.4824C176.127 17.5801 176.703 17.7363 177.27 17.9512C177.836 18.1465 178.334 18.4102 178.764 18.7422C179.213 19.0547 179.564 19.4453 179.818 19.9141C180.092 20.3633 180.229 20.9004 180.229 21.5254C180.229 22.2676 180.053 22.9414 179.701 23.5469C179.35 24.1328 178.91 24.6895 178.383 25.2168C177.875 25.7246 177.309 26.2031 176.684 26.6523C176.078 27.1016 175.512 27.541 174.984 27.9707C174.477 28.4004 174.047 28.8398 173.695 29.2891C173.344 29.7383 173.168 30.2266 173.168 30.7539C173.168 30.793 173.178 30.8516 173.197 30.9297C173.236 30.9883 173.256 31.0273 173.256 31.0469C175.561 31.7305 177.797 32.5605 179.965 33.5371C182.152 34.5137 184.301 35.5684 186.41 36.7012C186.469 36.7402 186.527 36.8184 186.586 36.9355C186.664 37.0332 186.732 37.1602 186.791 37.3164C186.85 37.4531 186.908 37.5801 186.967 37.6973C187.025 37.8145 187.055 37.9121 187.055 37.9902C187.055 38.166 187.006 38.3027 186.908 38.4004C186.811 38.4785 186.693 38.5469 186.557 38.6055C186.42 38.6445 186.283 38.6641 186.146 38.6641C186.01 38.6641 185.893 38.6641 185.795 38.6641C184.74 38.6641 183.686 38.4395 182.631 37.9902C181.596 37.5215 180.551 37.0039 179.496 36.4375C178.441 35.8711 177.367 35.3535 176.273 34.8848C175.199 34.416 174.076 34.1816 172.904 34.1816H171.967C172.279 34.9043 172.553 35.5488 172.787 36.1152C173.041 36.6816 173.246 37.2285 173.402 37.7559C173.578 38.2832 173.705 38.8203 173.783 39.3672C173.881 39.8945 173.93 40.4707 173.93 41.0957C173.93 41.2324 173.93 41.3984 173.93 41.5938C173.93 41.7695 173.92 41.9551 173.9 42.1504C173.881 42.3457 173.822 42.5215 173.725 42.6777C173.627 42.834 173.471 42.9414 173.256 43C172.455 42.5312 171.732 41.8086 171.088 40.832C170.463 39.8359 169.916 38.7031 169.447 37.4336C168.979 36.1641 168.578 34.8164 168.246 33.3906C167.934 31.9648 167.67 30.5684 167.455 29.2012C167.26 27.8145 167.113 26.5254 167.016 25.334C166.938 24.123 166.898 23.1172 166.898 22.3164ZM169.418 24.1621C169.418 24.416 169.398 24.748 169.359 25.1582C169.34 25.5488 169.34 25.959 169.359 26.3887C169.379 26.7988 169.438 27.1992 169.535 27.5898C169.652 27.9609 169.838 28.2832 170.092 28.5566C170.131 28.5762 170.17 28.5859 170.209 28.5859C170.229 28.6055 170.277 28.6152 170.355 28.6152C170.707 28.6152 171.127 28.5078 171.615 28.293C172.123 28.0781 172.65 27.7949 173.197 27.4434C173.744 27.0918 174.281 26.6914 174.809 26.2422C175.355 25.7734 175.844 25.2949 176.273 24.8066C176.703 24.3184 177.045 23.8301 177.299 23.3418C177.572 22.834 177.709 22.375 177.709 21.9648C177.709 21.5742 177.562 21.2422 177.27 20.9688C176.977 20.6758 176.625 20.4414 176.215 20.2656C175.805 20.0898 175.375 19.9629 174.926 19.8848C174.496 19.8066 174.145 19.7676 173.871 19.7676C173.539 19.7676 173.148 19.7676 172.699 19.7676C172.25 19.748 171.801 19.7773 171.352 19.8555C170.922 19.9141 170.531 20.0312 170.18 20.207C169.828 20.3828 169.584 20.6465 169.447 20.998C169.447 21.1152 169.447 21.3203 169.447 21.6133C169.447 21.9062 169.447 22.2285 169.447 22.5801C169.447 22.9121 169.438 23.2246 169.418 23.5176C169.418 23.8105 169.418 24.0254 169.418 24.1621ZM194.555 17.2773C194.672 16.9258 194.838 16.7207 195.053 16.6621C195.287 16.6035 195.551 16.5742 195.844 16.5742C196.293 16.5742 196.791 16.877 197.338 17.4824C197.904 18.0684 198.48 18.8594 199.066 19.8555C199.652 20.8516 200.238 21.9941 200.824 23.2832C201.43 24.5723 202.006 25.9102 202.553 27.2969C203.119 28.6641 203.646 30.0312 204.135 31.3984C204.623 32.7656 205.043 34.0254 205.395 35.1777C205.766 36.3105 206.049 37.2969 206.244 38.1367C206.439 38.9766 206.537 39.5527 206.537 39.8652C206.537 40.1777 206.459 40.4805 206.303 40.7734C206.166 41.0469 205.912 41.1836 205.541 41.1836C205.307 41.1836 205.102 41.1152 204.926 40.9785C204.77 40.8223 204.633 40.6367 204.516 40.4219C204.398 40.207 204.291 39.9922 204.193 39.7773C204.096 39.5625 204.008 39.377 203.93 39.2207C203.852 39.0059 203.686 38.5957 203.432 37.9902C203.197 37.3848 202.943 36.75 202.67 36.0859C202.416 35.4219 202.172 34.7969 201.938 34.2109C201.703 33.625 201.537 33.2051 201.439 32.9512C200.072 32.7168 198.695 32.502 197.309 32.3066C195.941 32.0918 194.496 31.8867 192.973 31.6914H192.65C191.947 34.7188 191.322 37.1113 190.775 38.8691C190.248 40.627 189.799 41.877 189.428 42.6191C189.076 43.3613 188.793 43.6641 188.578 43.5273C188.383 43.4102 188.246 42.9707 188.168 42.209C188.109 41.4277 188.119 40.3926 188.197 39.1035C188.295 37.8145 188.461 36.3984 188.695 34.8555C188.949 33.293 189.252 31.6621 189.604 29.9629C189.955 28.2637 190.375 26.623 190.863 25.041C191.371 23.459 191.928 21.9941 192.533 20.6465C193.158 19.2793 193.832 18.1562 194.555 17.2773ZM193.852 27.5898C193.852 28.3125 194.086 28.8496 194.555 29.2012C195.023 29.5332 195.59 29.748 196.254 29.8457C196.918 29.9434 197.611 29.9824 198.334 29.9629C199.076 29.9434 199.711 29.9336 200.238 29.9336C200.238 29.1523 200.111 28.3125 199.857 27.4141C199.604 26.4961 199.281 25.5879 198.891 24.6895C198.5 23.791 198.08 22.9219 197.631 22.082C197.201 21.2227 196.801 20.4512 196.43 19.7676C196.215 19.9824 195.98 20.3828 195.727 20.9688C195.492 21.5352 195.248 22.1797 194.994 22.9023C194.76 23.6055 194.545 24.2988 194.35 24.9824C194.154 25.666 194.008 26.2227 193.91 26.6523C193.91 26.7109 193.9 26.8672 193.881 27.1211C193.861 27.3555 193.852 27.5117 193.852 27.5898ZM208.383 23.1367C208.383 22.3164 208.617 21.6426 209.086 21.1152C209.574 20.5879 210.17 20.1777 210.873 19.8848C211.596 19.5723 212.367 19.3672 213.188 19.2695C214.008 19.1523 214.75 19.0938 215.414 19.0938C216.684 19.0938 217.748 19.3477 218.607 19.8555C219.486 20.3438 220.189 20.998 220.717 21.8184C221.264 22.6387 221.654 23.5859 221.889 24.6602C222.123 25.7344 222.24 26.8281 222.24 27.9414C222.24 28.6836 222.162 29.5625 222.006 30.5781C221.85 31.5742 221.615 32.6094 221.303 33.6836C220.99 34.7383 220.6 35.793 220.131 36.8477C219.682 37.8828 219.154 38.8203 218.549 39.6602C217.943 40.4805 217.26 41.1445 216.498 41.6523C215.756 42.1602 214.936 42.4141 214.037 42.4141C213.861 42.4141 213.646 42.1797 213.393 41.7109C213.158 41.2227 212.885 40.5781 212.572 39.7773C212.279 38.9766 211.967 38.0586 211.635 37.0234C211.322 35.9688 211.01 34.8848 210.697 33.7715C210.385 32.6387 210.092 31.5059 209.818 30.373C209.545 29.2402 209.291 28.1953 209.057 27.2383C208.842 26.2812 208.676 25.4414 208.559 24.7188C208.441 23.9961 208.383 23.4688 208.383 23.1367ZM210.814 24.8066C210.814 25.4316 210.854 26.1445 210.932 26.9453C211.029 27.7461 211.166 28.5762 211.342 29.4355C211.537 30.2949 211.771 31.1641 212.045 32.043C212.338 32.9023 212.67 33.7129 213.041 34.4746C213.412 35.2363 213.832 35.9297 214.301 36.5547C214.77 37.1602 215.297 37.6387 215.883 37.9902C216.547 37.0527 217.123 36.2129 217.611 35.4707C218.1 34.7285 218.5 33.9863 218.812 33.2441C219.125 32.502 219.35 31.7109 219.486 30.8711C219.643 30.0312 219.721 29.0547 219.721 27.9414C219.721 27.1406 219.672 26.3594 219.574 25.5977C219.477 24.8359 219.262 24.1621 218.93 23.5762C218.617 22.9707 218.168 22.4922 217.582 22.1406C216.996 21.7695 216.225 21.584 215.268 21.584C214.486 21.584 213.725 21.7109 212.982 21.9648C212.26 22.1992 211.557 22.5117 210.873 22.9023C210.873 22.9609 210.863 23.0781 210.844 23.2539C210.844 23.4297 210.844 23.625 210.844 23.8398C210.844 24.0352 210.834 24.2305 210.814 24.4258C210.814 24.6016 210.814 24.7285 210.814 24.8066ZM224.701 19.7676C224.604 19.7676 224.457 19.748 224.262 19.709C224.086 19.6504 223.9 19.5918 223.705 19.5332C223.51 19.4551 223.324 19.3867 223.148 19.3281C222.973 19.25 222.855 19.1914 222.797 19.1523C222.777 19.1133 222.768 19.0742 222.768 19.0352C222.748 18.9961 222.738 18.9473 222.738 18.8887C222.738 18.6152 222.846 18.3809 223.061 18.1855C223.275 17.9902 223.52 17.834 223.793 17.7168C224.086 17.5801 224.369 17.4824 224.643 17.4238C224.916 17.3457 225.131 17.2969 225.287 17.2773H225.639H225.932C226.4 17.3164 226.996 17.375 227.719 17.4531C228.441 17.5312 229.203 17.6191 230.004 17.7168C230.824 17.7949 231.645 17.8828 232.465 17.9805C233.305 18.0586 234.057 18.1465 234.721 18.2441C235.404 18.3223 235.971 18.3906 236.42 18.4492C236.889 18.4883 237.162 18.5078 237.24 18.5078C237.396 18.5273 237.592 18.5664 237.826 18.625C238.08 18.6641 238.334 18.7422 238.588 18.8594C238.842 18.957 239.076 19.084 239.291 19.2402C239.506 19.377 239.662 19.5527 239.76 19.7676C239.604 20.0801 239.467 20.3242 239.35 20.5C239.232 20.6562 239.105 20.7832 238.969 20.8809C238.832 20.959 238.686 20.998 238.529 20.998C238.393 20.998 238.217 20.998 238.002 20.998C237.182 20.998 236.352 20.9688 235.512 20.9102C234.691 20.8516 233.871 20.793 233.051 20.7344C232.23 20.6758 231.4 20.6172 230.561 20.5586C229.74 20.5 228.91 20.4707 228.07 20.4707C228.07 20.8223 228.021 21.3496 227.924 22.0527C227.846 22.7559 227.777 23.498 227.719 24.2793C227.68 25.0605 227.699 25.8418 227.777 26.623C227.875 27.3848 228.1 28.0293 228.451 28.5566C229.135 28.1465 229.848 27.9316 230.59 27.9121C231.332 27.8926 232.084 27.8828 232.846 27.8828C233.178 27.8828 233.598 27.8828 234.105 27.8828C234.613 27.8828 235.102 27.9414 235.57 28.0586C236.059 28.1758 236.469 28.3711 236.801 28.6445C237.133 28.918 237.299 29.3281 237.299 29.875C237.299 30.2656 237.221 30.5586 237.064 30.7539C236.908 30.9492 236.547 31.0469 235.98 31.0469C235.922 31.0469 235.795 31.0176 235.6 30.959C235.424 30.9004 235.229 30.832 235.014 30.7539C234.818 30.6758 234.633 30.6074 234.457 30.5488C234.281 30.4902 234.164 30.4609 234.105 30.4609C234.086 30.4609 234.008 30.4609 233.871 30.4609C233.754 30.4414 233.607 30.4316 233.432 30.4316C233.256 30.4316 233.08 30.4316 232.904 30.4316C232.748 30.4121 232.621 30.4023 232.523 30.4023C232.074 30.4023 231.635 30.4316 231.205 30.4902C230.795 30.5488 230.434 30.666 230.121 30.8418C229.809 31.0176 229.555 31.2715 229.359 31.6035C229.184 31.9355 229.096 32.3652 229.096 32.8926C229.096 33.0684 229.115 33.3711 229.154 33.8008C229.193 34.2305 229.242 34.709 229.301 35.2363C229.379 35.7441 229.477 36.2715 229.594 36.8184C229.711 37.3652 229.867 37.873 230.062 38.3418C230.258 38.791 230.473 39.1719 230.707 39.4844C230.961 39.7773 231.264 39.9238 231.615 39.9238C231.654 39.9238 231.752 39.9141 231.908 39.8945C232.064 39.875 232.162 39.8652 232.201 39.8652C232.865 39.416 233.529 38.9277 234.193 38.4004C234.877 37.873 235.58 37.3848 236.303 36.9355C237.025 36.4668 237.777 36.0762 238.559 35.7637C239.34 35.4316 240.15 35.2656 240.99 35.2656V36.7012C240.99 36.7793 240.795 36.9941 240.404 37.3457C240.033 37.6973 239.535 38.1074 238.91 38.5762C238.305 39.0449 237.621 39.543 236.859 40.0703C236.098 40.5977 235.336 41.0859 234.574 41.5352C233.812 41.9648 233.08 42.3262 232.377 42.6191C231.693 42.9121 231.117 43.0586 230.648 43.0586C229.984 43.0586 229.389 42.7656 228.861 42.1797C228.354 41.5742 227.895 40.7832 227.484 39.8066C227.074 38.8105 226.732 37.668 226.459 36.3789C226.186 35.0898 225.941 33.7617 225.727 32.3945C225.531 31.0273 225.365 29.6699 225.229 28.3223C225.111 26.9551 225.014 25.6953 224.936 24.543C224.857 23.3906 224.799 22.3945 224.76 21.5547C224.74 20.6953 224.721 20.0996 224.701 19.7676Z" fill="black"/>
</svg>
