<svg width="202" height="102" viewBox="0 0 202 102" fill="none" xmlns="http://www.w3.org/2000/svg">
<path d="M1.42281 8.70131C57.0886 6.70565 113.048 -0.513573 199.023 1.28522M3.5722 3.12023C43.5321 4.80286 86.101 3.64054 194.828 6.38169M195.482 6.99935C196.586 35.5907 192.952 72.8658 201 96.4594M199.192 4.32478C196.521 30.5471 194.517 56.6044 194.324 100.656M192.755 94.7618C147.891 95.9974 106.753 102.858 5.90934 98.0833M194.36 100.233C154.558 95.4695 116.176 95.9687 1.61734 101M4.1778 100.207C8.38112 72.8342 3.03415 51.8239 1 2.4515M3.39419 97.9401C2.62853 63.5331 1.61218 31.2313 2.12429 7.13682" stroke="white" stroke-width="1.5" stroke-linecap="round"/>
<path d="M66.2222 21.3203C66.1258 20.9831 65.9331 20.7542 65.644 20.6338C65.3791 20.5133 65.078 20.4531 64.7407 20.4531C64.4276 20.429 64.1144 20.4411 63.8013 20.4893C63.4881 20.5374 63.2472 20.5615 63.0786 20.5615C62.6691 20.5374 61.9585 20.4893 60.9468 20.417C59.9351 20.3447 58.839 20.2725 57.6587 20.2002C56.5024 20.1038 55.4185 20.0195 54.4067 19.9473C53.395 19.8509 52.6844 19.7907 52.2749 19.7666C52.2749 19.7184 52.2629 19.598 52.2388 19.4053C52.2147 19.2126 52.2026 19.0801 52.2026 19.0078C52.2026 18.6706 52.2267 18.3695 52.2749 18.1045C52.3472 17.8395 52.5881 17.6348 52.9976 17.4902C55.2619 17.5384 57.4901 17.5264 59.6821 17.4541C61.8983 17.3818 64.1024 17.2855 66.2944 17.165C68.5106 17.0205 70.7147 16.888 72.9067 16.7676C75.1229 16.6471 77.3511 16.5869 79.5913 16.5869C79.5913 17.5023 79.3745 18.1768 78.9409 18.6104C78.5073 19.0199 77.9653 19.2969 77.3149 19.4414C76.6886 19.5859 75.9901 19.6462 75.2192 19.6221C74.4484 19.598 73.7017 19.61 72.979 19.6582C72.2804 19.7064 71.6541 19.8509 71.1001 20.0918C70.5701 20.3086 70.2209 20.7181 70.0522 21.3203C70.0282 21.4648 70.0041 21.7419 69.98 22.1514C69.9559 22.5609 69.9318 22.9945 69.9077 23.4521C69.9077 23.9098 69.8957 24.3434 69.8716 24.7529C69.8716 25.1383 69.8716 25.4154 69.8716 25.584C69.8716 26.957 70.0402 28.318 70.3774 29.667C70.7388 30.9919 71.1242 32.3167 71.5337 33.6416C71.9673 34.9424 72.3527 36.2552 72.6899 37.5801C73.0513 38.8809 73.2319 40.2057 73.2319 41.5547C73.2319 42.5664 72.6538 43.0723 71.4976 43.0723C70.799 43.0723 70.1727 42.5905 69.6187 41.627C69.0887 40.6634 68.619 39.4349 68.2095 37.9414C67.8241 36.4479 67.4989 34.8219 67.2339 33.0635C66.993 31.305 66.7882 29.6188 66.6196 28.0049C66.4751 26.391 66.3667 24.9697 66.2944 23.7412C66.2463 22.5127 66.2222 21.7057 66.2222 21.3203ZM89.4194 11.2754C89.564 10.8418 89.7687 10.5889 90.0337 10.5166C90.3228 10.4443 90.6479 10.4082 91.0093 10.4082C91.5633 10.4082 92.1776 10.7816 92.8521 11.5283C93.5506 12.251 94.2612 13.2266 94.9839 14.4551C95.7065 15.6836 96.4292 17.0928 97.1519 18.6826C97.8986 20.2725 98.6092 21.9225 99.2837 23.6328C99.9823 25.319 100.633 27.0052 101.235 28.6914C101.837 30.3776 102.355 31.9313 102.789 33.3525C103.246 34.7497 103.596 35.9661 103.836 37.002C104.077 38.0378 104.198 38.7484 104.198 39.1338C104.198 39.5192 104.101 39.8926 103.909 40.2539C103.74 40.5911 103.427 40.7598 102.969 40.7598C102.68 40.7598 102.427 40.6755 102.21 40.5068C102.018 40.3141 101.849 40.0853 101.705 39.8203C101.56 39.5553 101.428 39.2904 101.307 39.0254C101.187 38.7604 101.078 38.5316 100.982 38.3389C100.886 38.0739 100.681 37.568 100.368 36.8213C100.079 36.0745 99.7655 35.2917 99.4282 34.4727C99.1151 33.6536 98.814 32.8828 98.5249 32.1602C98.2358 31.4375 98.0311 30.9196 97.9106 30.6064C96.2244 30.3174 94.5262 30.0524 92.8159 29.8115C91.1297 29.5465 89.3472 29.2936 87.4683 29.0527H87.0708C86.2036 32.7865 85.4328 35.7373 84.7583 37.9053C84.1079 40.0732 83.5539 41.6149 83.0962 42.5303C82.6626 43.4456 82.3133 43.819 82.0483 43.6504C81.8075 43.5059 81.6388 42.9639 81.5425 42.0244C81.4702 41.0609 81.4823 39.7842 81.5786 38.1943C81.6991 36.6045 81.9038 34.8581 82.1929 32.9551C82.506 31.028 82.8794 29.0166 83.313 26.9209C83.7466 24.8252 84.2645 22.8018 84.8667 20.8506C85.493 18.8994 86.1795 17.0928 86.9263 15.4307C87.6971 13.7445 88.5282 12.3594 89.4194 11.2754ZM88.5522 23.9941C88.5522 24.8854 88.8413 25.5479 89.4194 25.9814C89.9976 26.391 90.6961 26.6559 91.5151 26.7764C92.3341 26.8968 93.1893 26.945 94.0806 26.9209C94.9959 26.8968 95.7788 26.8848 96.4292 26.8848C96.4292 25.9212 96.2726 24.8854 95.9595 23.7773C95.6463 22.6452 95.2489 21.5251 94.7671 20.417C94.2853 19.3089 93.7674 18.237 93.2134 17.2012C92.6834 16.1413 92.1896 15.1898 91.7319 14.3467C91.467 14.6117 91.1779 15.1055 90.8647 15.8281C90.5757 16.5267 90.2746 17.3216 89.9614 18.2129C89.6724 19.0801 89.4074 19.9352 89.1665 20.7783C88.9256 21.6214 88.745 22.3079 88.6245 22.8379C88.6245 22.9102 88.6125 23.1029 88.5884 23.416C88.5643 23.7051 88.5522 23.8978 88.5522 23.9941ZM111.858 41.4463C111.978 40.8682 112.279 40.3984 112.761 40.0371C113.267 39.6517 113.833 39.3024 114.459 38.9893C115.11 38.6761 115.784 38.387 116.483 38.1221C117.181 37.833 117.82 37.5319 118.398 37.2188C119 36.9056 119.494 36.5443 119.879 36.1348C120.265 35.7012 120.458 35.1833 120.458 34.5811C120.458 33.8102 120.253 33.1719 119.843 32.666C119.458 32.1602 118.928 31.7266 118.253 31.3652C117.603 31.0039 116.856 30.7028 116.013 30.4619C115.17 30.221 114.303 29.9801 113.412 29.7393C112.544 29.4743 111.689 29.1973 110.846 28.9082C110.003 28.5951 109.244 28.2096 108.57 27.752C107.919 27.2943 107.389 26.7402 106.98 26.0898C106.595 25.4395 106.402 24.6325 106.402 23.6689C106.402 22.874 106.558 22.1273 106.872 21.4287C107.209 20.7061 107.642 20.0316 108.172 19.4053C108.726 18.7549 109.353 18.1647 110.051 17.6348C110.774 17.1048 111.521 16.6592 112.292 16.2979C113.086 15.9365 113.881 15.6595 114.676 15.4668C115.471 15.25 116.206 15.1416 116.88 15.1416H117.278C117.495 15.2139 117.784 15.3343 118.145 15.5029C118.506 15.6715 118.856 15.8402 119.193 16.0088C119.53 16.1533 119.819 16.2979 120.06 16.4424C120.301 16.5628 120.421 16.6351 120.421 16.6592V17.4902C119.964 17.5384 119.374 17.6348 118.651 17.7793C117.928 17.8997 117.169 18.0684 116.375 18.2852C115.58 18.502 114.773 18.779 113.954 19.1162C113.135 19.4294 112.4 19.8027 111.75 20.2363C111.099 20.6699 110.569 21.1758 110.16 21.7539C109.75 22.3079 109.545 22.9463 109.545 23.6689C109.545 24.7048 109.907 25.5238 110.629 26.126C111.352 26.7041 112.255 27.1859 113.339 27.5713C114.423 27.9567 115.604 28.306 116.88 28.6191C118.181 28.9082 119.374 29.2695 120.458 29.7031C121.542 30.1126 122.445 30.6667 123.167 31.3652C123.89 32.0397 124.251 32.9551 124.251 34.1113C124.251 34.7376 124.059 35.4001 123.673 36.0986C123.312 36.7731 122.818 37.4476 122.192 38.1221C121.59 38.7725 120.903 39.3988 120.132 40.001C119.361 40.6032 118.567 41.1331 117.748 41.5908C116.953 42.0244 116.17 42.3857 115.399 42.6748C114.628 42.9398 113.942 43.0723 113.339 43.0723C113.147 43.0723 112.942 43.0482 112.725 43C112.508 42.9518 112.316 42.8796 112.147 42.7832C112.002 42.6628 111.882 42.4941 111.786 42.2773C111.713 42.0605 111.737 41.7835 111.858 41.4463ZM125.733 17.9961C125.733 17.5384 125.721 17.0446 125.697 16.5146C125.673 15.9847 125.709 15.4909 125.805 15.0332C125.926 14.5755 126.118 14.2021 126.383 13.9131C126.672 13.5999 127.13 13.4434 127.756 13.4434C128.214 14.0697 128.503 14.8525 128.624 15.792C128.768 16.7074 128.864 17.6829 128.913 18.7188C128.961 19.7305 129.009 20.7422 129.057 21.7539C129.129 22.7656 129.334 23.6569 129.671 24.4277C129.695 24.5241 129.804 24.6686 129.997 24.8613C130.213 25.0299 130.358 25.1383 130.43 25.1865C131.153 24.5602 131.803 23.9098 132.381 23.2354C132.984 22.5609 133.574 21.9105 134.152 21.2842C134.73 20.6338 135.308 20.0195 135.886 19.4414C136.464 18.8633 137.091 18.3574 137.765 17.9238C138.464 17.4902 139.235 17.153 140.078 16.9121C140.945 16.6471 141.92 16.5146 143.004 16.5146C143.004 17.0928 142.8 17.6709 142.39 18.249C141.981 18.8271 141.463 19.4173 140.836 20.0195C140.21 20.5977 139.524 21.1999 138.777 21.8262C138.03 22.4284 137.307 23.0547 136.609 23.7051C135.91 24.3314 135.284 24.9697 134.73 25.6201C134.176 26.2464 133.778 26.8848 133.538 27.5352C133.947 27.6315 134.622 27.8724 135.561 28.2578C136.525 28.6191 137.609 29.0768 138.813 29.6309C140.042 30.1608 141.306 30.7389 142.607 31.3652C143.908 31.9915 145.1 32.6178 146.184 33.2441C147.268 33.8464 148.147 34.4245 148.822 34.9785C149.52 35.5085 149.87 35.9421 149.87 36.2793C149.87 36.3516 149.87 36.5081 149.87 36.749C149.87 36.9658 149.846 37.1947 149.797 37.4355C149.773 37.6764 149.701 37.8932 149.581 38.0859C149.46 38.2546 149.267 38.3389 149.002 38.3389C147.991 38.3148 147.039 38.1341 146.148 37.7969C145.257 37.4355 144.389 37.002 143.546 36.4961C142.703 35.9661 141.86 35.4242 141.017 34.8701C140.198 34.292 139.355 33.75 138.488 33.2441C137.621 32.7142 136.717 32.2926 135.778 31.9795C134.862 31.6423 133.863 31.4495 132.779 31.4014C132.417 31.9795 132.261 32.5456 132.309 33.0996C132.357 33.6296 132.514 34.1715 132.779 34.7256C133.068 35.2555 133.405 35.8096 133.791 36.3877C134.176 36.9417 134.513 37.5319 134.802 38.1582C135.091 38.7604 135.284 39.3988 135.38 40.0732C135.477 40.7477 135.368 41.4583 135.055 42.2051C135.007 42.2773 134.911 42.3617 134.766 42.458C134.646 42.5303 134.501 42.6146 134.333 42.7109C134.188 42.8073 134.031 42.8796 133.863 42.9277C133.694 42.9759 133.586 43 133.538 43C133.224 43 132.875 42.6989 132.49 42.0967C132.128 41.4945 131.731 40.6755 131.297 39.6396C130.888 38.6038 130.454 37.4235 129.997 36.0986C129.563 34.7497 129.129 33.3646 128.696 31.9434C128.286 30.498 127.901 29.0527 127.54 27.6074C127.202 26.138 126.889 24.777 126.6 23.5244C126.335 22.2477 126.118 21.1276 125.95 20.1641C125.805 19.2005 125.733 18.4779 125.733 17.9961ZM16.1963 76.6064C16.1963 75.7874 16.3047 74.8962 16.5215 73.9326C16.7624 72.9691 17.0876 72.0055 17.4971 71.042C17.9066 70.0544 18.4004 69.1029 18.9785 68.1875C19.5566 67.248 20.207 66.429 20.9297 65.7305C21.6523 65.0078 22.4352 64.4417 23.2783 64.0322C24.1214 63.5986 25.0127 63.3818 25.9521 63.3818C26.723 63.3818 27.4456 63.4902 28.1201 63.707C28.7946 63.8997 29.3727 64.2008 29.8545 64.6104C30.3363 65.0199 30.7096 65.5378 30.9746 66.1641C31.2637 66.7663 31.4082 67.4889 31.4082 68.332C30.8783 68.332 30.4447 68.1995 30.1074 67.9346C29.7943 67.6455 29.4932 67.3324 29.2041 66.9951C28.9391 66.6579 28.638 66.3568 28.3008 66.0918C27.9876 65.8268 27.5781 65.6943 27.0723 65.6943C26.3255 65.6943 25.6029 65.887 24.9043 66.2725C24.2298 66.6579 23.5915 67.1758 22.9893 67.8262C22.4111 68.4766 21.8932 69.2113 21.4355 70.0303C21.002 70.8493 20.6165 71.6803 20.2793 72.5234C19.9661 73.3424 19.7132 74.1494 19.5205 74.9443C19.3519 75.7393 19.2676 76.4258 19.2676 77.0039C19.2676 78.2565 19.4482 79.4368 19.8096 80.5449C20.195 81.6289 20.737 82.5804 21.4355 83.3994C22.1341 84.1943 23.0013 84.8206 24.0371 85.2783C25.0729 85.736 26.2533 85.9648 27.5781 85.9648C28.4212 85.9648 29.2161 85.8444 29.9629 85.6035C30.7337 85.3385 31.4684 85.0615 32.167 84.7725C32.8896 84.4593 33.6003 84.1702 34.2988 83.9053C34.9974 83.6403 35.696 83.5078 36.3945 83.5078C36.4909 83.5078 36.6234 83.5199 36.792 83.5439C36.9847 83.5439 37.1533 83.568 37.2979 83.6162C37.4665 83.6644 37.611 83.7487 37.7314 83.8691C37.8519 83.9655 37.9121 84.1221 37.9121 84.3389C37.9121 85.2061 37.5749 85.9408 36.9004 86.543C36.25 87.1452 35.4671 87.639 34.5518 88.0244C33.6364 88.3857 32.6849 88.6507 31.6973 88.8193C30.7096 88.988 29.9027 89.0723 29.2764 89.0723C27.4456 89.0723 25.7354 88.7832 24.1455 88.2051C22.5557 87.6029 21.1706 86.7598 19.9902 85.6758C18.8099 84.5918 17.8825 83.291 17.208 81.7734C16.5335 80.2318 16.1963 78.5094 16.1963 76.6064ZM38.707 78.9551C38.707 77.7266 38.8636 76.486 39.1768 75.2334C39.514 73.9567 39.9717 72.7402 40.5498 71.584C41.152 70.4277 41.8747 69.3558 42.7178 68.3682C43.5609 67.3564 44.4883 66.4893 45.5 65.7666C46.5358 65.0199 47.6559 64.4417 48.8604 64.0322C50.0648 63.5986 51.3294 63.3818 52.6543 63.3818C53.9792 63.3818 55.1234 63.6468 56.0869 64.1768C57.0745 64.6826 57.8936 65.3691 58.5439 66.2363C59.1943 67.1035 59.6761 68.1032 59.9893 69.2354C60.3024 70.3434 60.459 71.4756 60.459 72.6318C60.459 74.6553 60.1579 76.6546 59.5557 78.6299C58.9535 80.5811 58.0622 82.3395 56.8818 83.9053C55.7015 85.4469 54.2321 86.6995 52.4736 87.6631C50.7393 88.6025 48.7399 89.0723 46.4756 89.0723C45.1266 89.0723 43.9583 88.7712 42.9707 88.1689C42.0072 87.5426 41.2002 86.7477 40.5498 85.7842C39.9235 84.7965 39.4538 83.7126 39.1406 82.5322C38.8516 81.3278 38.707 80.1354 38.707 78.9551ZM41.7783 79.75C41.7783 80.4004 41.8867 81.0869 42.1035 81.8096C42.3203 82.5322 42.6214 83.1947 43.0068 83.7969C43.3923 84.3991 43.874 84.9049 44.4521 85.3145C45.0544 85.724 45.7288 85.9287 46.4756 85.9287C48.0895 85.9287 49.5589 85.5674 50.8838 84.8447C52.2087 84.098 53.3529 83.1465 54.3164 81.9902C55.2799 80.8099 56.0267 79.4971 56.5566 78.0518C57.0866 76.6064 57.3516 75.1732 57.3516 73.752C57.3516 72.9329 57.3275 72.0898 57.2793 71.2227C57.2311 70.3555 57.0745 69.5726 56.8096 68.874C56.5446 68.1514 56.123 67.5732 55.5449 67.1396C54.9909 66.682 54.1839 66.4531 53.124 66.4531C52.7868 66.4531 52.3291 66.4652 51.751 66.4893C51.1969 66.5133 50.6429 66.5856 50.0889 66.7061C49.5348 66.8024 49.041 66.959 48.6074 67.1758C48.1979 67.3926 47.9932 67.6937 47.9932 68.0791C47.9932 68.1273 48.0293 68.2357 48.1016 68.4043C48.1979 68.5488 48.2943 68.7054 48.3906 68.874C48.487 69.0426 48.5713 69.2113 48.6436 69.3799C48.7158 69.5244 48.752 69.6208 48.752 69.6689C48.752 69.7171 48.6556 69.8496 48.4629 70.0664C48.2702 70.2591 48.1136 70.3796 47.9932 70.4277C46.7887 70.7409 45.777 71.1383 44.958 71.6201C44.1631 72.0778 43.5247 72.68 43.043 73.4268C42.5853 74.1735 42.2601 75.0648 42.0674 76.1006C41.8747 77.1364 41.7783 78.3529 41.7783 79.75ZM62.6631 73.5352C62.6631 73.2461 62.6631 72.7764 62.6631 72.126C62.6872 71.4515 62.6992 70.7529 62.6992 70.0303C62.6992 69.2835 62.6992 68.585 62.6992 67.9346C62.7233 67.2842 62.7354 66.8265 62.7354 66.5615C62.7594 66.3929 62.8197 66.14 62.916 65.8027C63.0124 65.4414 63.1208 65.0921 63.2412 64.7549C63.3857 64.4176 63.5664 64.1286 63.7832 63.8877C64.0241 63.6227 64.3132 63.4902 64.6504 63.4902C65.4453 63.4902 66.1921 63.707 66.8906 64.1406C67.5892 64.5742 68.2637 65.1523 68.9141 65.875C69.5645 66.5736 70.1787 67.3564 70.7568 68.2236C71.359 69.0908 71.9492 69.958 72.5273 70.8252C73.1055 71.6683 73.6715 72.4753 74.2256 73.2461C74.7796 73.9928 75.3337 74.5951 75.8877 75.0527C76.4899 74.7878 76.9596 74.306 77.2969 73.6074C77.6341 72.8848 77.9111 72.0658 78.1279 71.1504C78.3447 70.2109 78.5374 69.2474 78.7061 68.2598C78.8988 67.248 79.1517 66.3206 79.4648 65.4775C79.778 64.6344 80.1875 63.9479 80.6934 63.418C81.2233 62.8639 81.946 62.5869 82.8613 62.5869C83.9453 62.5869 84.9209 63.0085 85.7881 63.8516C86.6794 64.6947 87.4743 65.7666 88.1729 67.0674C88.8714 68.3682 89.4616 69.8135 89.9434 71.4033C90.4492 72.9932 90.8708 74.5228 91.208 75.9922C91.5452 77.4616 91.7982 78.7865 91.9668 79.9668C92.1354 81.1471 92.2197 81.9902 92.2197 82.4961C92.2197 82.7129 92.2077 82.9538 92.1836 83.2188C92.1595 83.4596 92.0993 83.6885 92.0029 83.9053C91.9066 84.098 91.75 84.2546 91.5332 84.375C91.3164 84.4714 91.0033 84.4593 90.5938 84.3389C90.4733 84.3148 90.3288 84.2546 90.1602 84.1582C90.0156 84.0378 89.859 83.8932 89.6904 83.7246C89.5218 83.556 89.3773 83.3994 89.2568 83.2549C89.1364 83.0863 89.0762 82.9417 89.0762 82.8213C88.8594 81.641 88.6185 80.3281 88.3535 78.8828C88.0885 77.4375 87.7513 75.9801 87.3418 74.5107C86.9564 73.0173 86.4626 71.5719 85.8604 70.1748C85.2581 68.7777 84.5114 67.5732 83.6201 66.5615C82.9215 66.9469 82.3675 67.5371 81.958 68.332C81.5726 69.1029 81.2474 69.958 80.9824 70.8975C80.7174 71.8128 80.4766 72.7523 80.2598 73.7158C80.043 74.6794 79.7539 75.5586 79.3926 76.3535C79.0312 77.1243 78.5736 77.7627 78.0195 78.2686C77.4655 78.7744 76.7188 79.0273 75.7793 79.0273C75.1289 79.0273 74.4906 78.8226 73.8643 78.4131C73.262 77.9795 72.6719 77.4255 72.0938 76.751C71.5156 76.0524 70.9495 75.2936 70.3955 74.4746C69.8656 73.6315 69.3356 72.8125 68.8057 72.0176C68.2998 71.1986 67.7939 70.4398 67.2881 69.7412C66.8063 69.0426 66.3125 68.4886 65.8066 68.0791C65.6139 68.8258 65.4574 69.4883 65.3369 70.0664C65.2406 70.6204 65.1562 71.1624 65.084 71.6924C65.0358 72.2223 64.9997 72.7643 64.9756 73.3184C64.9756 73.8724 64.9756 74.4867 64.9756 75.1611C64.9756 76.1729 65.0599 77.1846 65.2285 78.1963C65.3971 79.1839 65.5778 80.1715 65.7705 81.1592C65.9632 82.1468 66.1439 83.1465 66.3125 84.1582C66.5052 85.1458 66.6016 86.1455 66.6016 87.1572V87.4463C66.5534 87.5186 66.457 87.639 66.3125 87.8076C66.168 87.9521 66.0114 88.1087 65.8428 88.2773C65.6982 88.446 65.5417 88.6025 65.373 88.7471C65.2044 88.8675 65.084 88.9518 65.0117 89C64.9876 89.0241 64.9395 89.0361 64.8672 89.0361C64.7949 89.0602 64.7227 89.0723 64.6504 89.0723C64.6022 89.0723 64.542 89.0602 64.4697 89.0361C64.3975 89.012 64.3372 89 64.2891 89C64.1204 87.6029 63.9398 86.278 63.7471 85.0254C63.5544 83.7728 63.3737 82.5322 63.2051 81.3037C63.0605 80.0752 62.9281 78.8346 62.8076 77.582C62.7113 76.3294 62.6631 74.9805 62.6631 73.5352ZM93.5928 63.4902C93.5928 63.2975 93.6048 62.9844 93.6289 62.5508C93.6289 62.0931 93.6289 61.6234 93.6289 61.1416C93.6289 60.6357 93.641 60.166 93.665 59.7324C93.665 59.2747 93.665 58.9616 93.665 58.793C93.93 58.2871 94.3395 57.9258 94.8936 57.709C95.4717 57.4681 96.0859 57.3115 96.7363 57.2393C97.4108 57.1429 98.0612 57.1068 98.6875 57.1309C99.3379 57.1549 99.8678 57.167 100.277 57.167C100.807 57.167 101.422 57.1911 102.12 57.2393C102.843 57.2874 103.553 57.3838 104.252 57.5283C104.975 57.6488 105.685 57.8415 106.384 58.1064C107.082 58.3473 107.697 58.6725 108.227 59.082C108.781 59.4674 109.214 59.9492 109.527 60.5273C109.865 61.0814 110.033 61.7438 110.033 62.5146C110.033 63.43 109.816 64.2611 109.383 65.0078C108.949 65.7305 108.407 66.417 107.757 67.0674C107.131 67.6937 106.432 68.2839 105.661 68.8379C104.914 69.3919 104.216 69.9339 103.565 70.4639C102.939 70.9938 102.409 71.5358 101.976 72.0898C101.542 72.6439 101.325 73.2461 101.325 73.8965C101.325 73.9447 101.337 74.0169 101.361 74.1133C101.41 74.1855 101.434 74.2337 101.434 74.2578C104.276 75.1009 107.034 76.1247 109.708 77.3291C112.406 78.5335 115.056 79.8343 117.657 81.2314C117.729 81.2796 117.802 81.376 117.874 81.5205C117.97 81.641 118.055 81.7975 118.127 81.9902C118.199 82.1589 118.271 82.3154 118.344 82.46C118.416 82.6045 118.452 82.7249 118.452 82.8213C118.452 83.0381 118.392 83.2067 118.271 83.3271C118.151 83.4235 118.007 83.5078 117.838 83.5801C117.669 83.6283 117.501 83.6523 117.332 83.6523C117.163 83.6523 117.019 83.6523 116.898 83.6523C115.598 83.6523 114.297 83.3753 112.996 82.8213C111.719 82.2432 110.431 81.6048 109.13 80.9062C107.829 80.2077 106.504 79.5693 105.155 78.9912C103.83 78.4131 102.445 78.124 101 78.124H99.8438C100.229 79.0153 100.566 79.8102 100.855 80.5088C101.169 81.2074 101.422 81.8818 101.614 82.5322C101.831 83.1826 101.988 83.8451 102.084 84.5195C102.204 85.1699 102.265 85.8805 102.265 86.6514C102.265 86.82 102.265 87.0247 102.265 87.2656C102.265 87.4824 102.253 87.7113 102.229 87.9521C102.204 88.193 102.132 88.4098 102.012 88.6025C101.891 88.7952 101.699 88.9277 101.434 89C100.446 88.4219 99.5547 87.5306 98.7598 86.3262C97.9889 85.0977 97.3145 83.7005 96.7363 82.1348C96.1582 80.569 95.6644 78.9069 95.2549 77.1484C94.8695 75.39 94.5443 73.6676 94.2793 71.9814C94.0384 70.2712 93.8577 68.6813 93.7373 67.2119C93.641 65.7184 93.5928 64.4779 93.5928 63.4902ZM96.7002 65.7666C96.7002 66.0798 96.6761 66.4893 96.6279 66.9951C96.6038 67.4769 96.6038 67.9827 96.6279 68.5127C96.652 69.0186 96.7243 69.5124 96.8447 69.9941C96.9893 70.4518 97.2181 70.8493 97.5312 71.1865C97.5794 71.2106 97.6276 71.2227 97.6758 71.2227C97.6999 71.2467 97.7601 71.2588 97.8564 71.2588C98.29 71.2588 98.8079 71.1263 99.4102 70.8613C100.036 70.5964 100.687 70.2471 101.361 69.8135C102.036 69.3799 102.698 68.8861 103.349 68.332C104.023 67.7539 104.625 67.1637 105.155 66.5615C105.685 65.9593 106.107 65.3571 106.42 64.7549C106.757 64.1286 106.926 63.5625 106.926 63.0566C106.926 62.5749 106.745 62.1654 106.384 61.8281C106.022 61.4668 105.589 61.1777 105.083 60.9609C104.577 60.7441 104.047 60.5876 103.493 60.4912C102.963 60.3949 102.53 60.3467 102.192 60.3467C101.783 60.3467 101.301 60.3467 100.747 60.3467C100.193 60.3226 99.639 60.3587 99.085 60.4551C98.555 60.5273 98.0732 60.6719 97.6396 60.8887C97.2061 61.1055 96.9049 61.4307 96.7363 61.8643C96.7363 62.0088 96.7363 62.2617 96.7363 62.623C96.7363 62.9844 96.7363 63.3818 96.7363 63.8154C96.7363 64.2249 96.7243 64.6104 96.7002 64.9717C96.7002 65.333 96.7002 65.598 96.7002 65.7666ZM127.702 57.2754C127.847 56.8418 128.051 56.5889 128.316 56.5166C128.605 56.4443 128.931 56.4082 129.292 56.4082C129.846 56.4082 130.46 56.7816 131.135 57.5283C131.833 58.251 132.544 59.2266 133.267 60.4551C133.989 61.6836 134.712 63.0928 135.435 64.6826C136.181 66.2725 136.892 67.9225 137.566 69.6328C138.265 71.319 138.915 73.0052 139.518 74.6914C140.12 76.3776 140.638 77.9313 141.071 79.3525C141.529 80.7497 141.878 81.9661 142.119 83.002C142.36 84.0378 142.48 84.7484 142.48 85.1338C142.48 85.5192 142.384 85.8926 142.191 86.2539C142.023 86.5911 141.71 86.7598 141.252 86.7598C140.963 86.7598 140.71 86.6755 140.493 86.5068C140.3 86.3141 140.132 86.0853 139.987 85.8203C139.843 85.5553 139.71 85.2904 139.59 85.0254C139.469 84.7604 139.361 84.5316 139.265 84.3389C139.168 84.0739 138.964 83.568 138.65 82.8213C138.361 82.0745 138.048 81.2917 137.711 80.4727C137.398 79.6536 137.097 78.8828 136.808 78.1602C136.519 77.4375 136.314 76.9196 136.193 76.6064C134.507 76.3174 132.809 76.0524 131.099 75.8115C129.412 75.5465 127.63 75.2936 125.751 75.0527H125.354C124.486 78.7865 123.715 81.7373 123.041 83.9053C122.391 86.0732 121.837 87.6149 121.379 88.5303C120.945 89.4456 120.596 89.819 120.331 89.6504C120.09 89.5059 119.922 88.9639 119.825 88.0244C119.753 87.0609 119.765 85.7842 119.861 84.1943C119.982 82.6045 120.187 80.8581 120.476 78.9551C120.789 77.028 121.162 75.0166 121.596 72.9209C122.029 70.8252 122.547 68.8018 123.149 66.8506C123.776 64.8994 124.462 63.0928 125.209 61.4307C125.98 59.7445 126.811 58.3594 127.702 57.2754ZM126.835 69.9941C126.835 70.8854 127.124 71.5479 127.702 71.9814C128.28 72.391 128.979 72.6559 129.798 72.7764C130.617 72.8968 131.472 72.945 132.363 72.9209C133.279 72.8968 134.062 72.8848 134.712 72.8848C134.712 71.9212 134.555 70.8854 134.242 69.7773C133.929 68.6452 133.532 67.5251 133.05 66.417C132.568 65.3089 132.05 64.237 131.496 63.2012C130.966 62.1413 130.472 61.1898 130.015 60.3467C129.75 60.6117 129.461 61.1055 129.147 61.8281C128.858 62.5267 128.557 63.3216 128.244 64.2129C127.955 65.0801 127.69 65.9352 127.449 66.7783C127.208 67.6214 127.028 68.3079 126.907 68.8379C126.907 68.9102 126.895 69.1029 126.871 69.416C126.847 69.7051 126.835 69.8978 126.835 69.9941ZM144.757 64.502C144.757 63.4902 145.046 62.6592 145.624 62.0088C146.226 61.3584 146.961 60.8525 147.828 60.4912C148.719 60.1058 149.671 59.8529 150.683 59.7324C151.694 59.5879 152.61 59.5156 153.429 59.5156C154.994 59.5156 156.307 59.8288 157.367 60.4551C158.451 61.0573 159.318 61.8643 159.969 62.876C160.643 63.8877 161.125 65.056 161.414 66.3809C161.703 67.7057 161.848 69.0547 161.848 70.4277C161.848 71.3431 161.751 72.4271 161.559 73.6797C161.366 74.9082 161.077 76.1849 160.691 77.5098C160.306 78.8105 159.824 80.1113 159.246 81.4121C158.692 82.6888 158.042 83.8451 157.295 84.8809C156.548 85.8926 155.705 86.7116 154.766 87.3379C153.85 87.9642 152.839 88.2773 151.73 88.2773C151.514 88.2773 151.249 87.9883 150.936 87.4102C150.646 86.8079 150.309 86.013 149.924 85.0254C149.562 84.0378 149.177 82.9056 148.768 81.6289C148.382 80.3281 147.997 78.9912 147.611 77.6182C147.226 76.221 146.865 74.8239 146.527 73.4268C146.19 72.0296 145.877 70.7409 145.588 69.5605C145.323 68.3802 145.118 67.3444 144.974 66.4531C144.829 65.5618 144.757 64.9115 144.757 64.502ZM147.756 66.5615C147.756 67.3324 147.804 68.2116 147.9 69.1992C148.021 70.1868 148.189 71.2106 148.406 72.2705C148.647 73.3304 148.936 74.4023 149.273 75.4863C149.635 76.5462 150.044 77.5459 150.502 78.4854C150.96 79.4248 151.478 80.2799 152.056 81.0508C152.634 81.7975 153.284 82.3877 154.007 82.8213C154.826 81.665 155.536 80.6292 156.139 79.7139C156.741 78.7985 157.235 77.8831 157.62 76.9678C158.006 76.0524 158.283 75.0768 158.451 74.041C158.644 73.0052 158.74 71.8008 158.74 70.4277C158.74 69.4401 158.68 68.4766 158.56 67.5371C158.439 66.5977 158.174 65.7666 157.765 65.0439C157.379 64.2972 156.825 63.707 156.103 63.2734C155.38 62.8158 154.428 62.5869 153.248 62.5869C152.285 62.5869 151.345 62.7435 150.43 63.0566C149.538 63.3457 148.671 63.7311 147.828 64.2129C147.828 64.2852 147.816 64.4297 147.792 64.6465C147.792 64.8633 147.792 65.1042 147.792 65.3691C147.792 65.61 147.78 65.8509 147.756 66.0918C147.756 66.3086 147.756 66.4652 147.756 66.5615ZM164.883 60.3467C164.762 60.3467 164.582 60.3226 164.341 60.2744C164.124 60.2021 163.895 60.1299 163.654 60.0576C163.413 59.9613 163.185 59.877 162.968 59.8047C162.751 59.7083 162.606 59.6361 162.534 59.5879C162.51 59.5397 162.498 59.4915 162.498 59.4434C162.474 59.3952 162.462 59.335 162.462 59.2627C162.462 58.9255 162.594 58.6364 162.859 58.3955C163.124 58.1546 163.425 57.9619 163.763 57.8174C164.124 57.6488 164.473 57.5283 164.811 57.4561C165.148 57.3597 165.413 57.2995 165.605 57.2754H166.039H166.4C166.979 57.3236 167.713 57.3958 168.604 57.4922C169.496 57.5885 170.435 57.6969 171.423 57.8174C172.435 57.9137 173.446 58.0221 174.458 58.1426C175.494 58.2389 176.421 58.3473 177.24 58.4678C178.083 58.5641 178.782 58.6484 179.336 58.7207C179.914 58.7689 180.251 58.793 180.348 58.793C180.54 58.8171 180.781 58.8652 181.07 58.9375C181.383 58.9857 181.697 59.082 182.01 59.2266C182.323 59.347 182.612 59.5036 182.877 59.6963C183.142 59.8649 183.335 60.0817 183.455 60.3467C183.262 60.7321 183.094 61.0332 182.949 61.25C182.805 61.4427 182.648 61.5993 182.479 61.7197C182.311 61.8161 182.13 61.8643 181.938 61.8643C181.769 61.8643 181.552 61.8643 181.287 61.8643C180.275 61.8643 179.252 61.8281 178.216 61.7559C177.204 61.6836 176.192 61.6113 175.181 61.5391C174.169 61.4668 173.145 61.3945 172.109 61.3223C171.098 61.25 170.074 61.2139 169.038 61.2139C169.038 61.6475 168.978 62.2979 168.857 63.165C168.761 64.0322 168.677 64.9476 168.604 65.9111C168.556 66.8747 168.58 67.8382 168.677 68.8018C168.797 69.7412 169.074 70.5361 169.508 71.1865C170.351 70.6807 171.23 70.4157 172.146 70.3916C173.061 70.3675 173.988 70.3555 174.928 70.3555C175.337 70.3555 175.855 70.3555 176.481 70.3555C177.108 70.3555 177.71 70.4277 178.288 70.5723C178.89 70.7168 179.396 70.9577 179.806 71.2949C180.215 71.6322 180.42 72.138 180.42 72.8125C180.42 73.2943 180.324 73.6556 180.131 73.8965C179.938 74.1374 179.493 74.2578 178.794 74.2578C178.722 74.2578 178.565 74.2217 178.324 74.1494C178.107 74.0771 177.867 73.9928 177.602 73.8965C177.361 73.8001 177.132 73.7158 176.915 73.6436C176.698 73.5713 176.554 73.5352 176.481 73.5352C176.457 73.5352 176.361 73.5352 176.192 73.5352C176.048 73.5111 175.867 73.499 175.65 73.499C175.434 73.499 175.217 73.499 175 73.499C174.807 73.4749 174.651 73.4629 174.53 73.4629C173.976 73.4629 173.434 73.499 172.904 73.5713C172.398 73.6436 171.953 73.7881 171.567 74.0049C171.182 74.2217 170.869 74.5348 170.628 74.9443C170.411 75.3538 170.303 75.8838 170.303 76.5342C170.303 76.751 170.327 77.1243 170.375 77.6543C170.423 78.1842 170.483 78.7744 170.556 79.4248C170.652 80.0511 170.772 80.7015 170.917 81.376C171.062 82.0505 171.254 82.6768 171.495 83.2549C171.736 83.8089 172.001 84.2786 172.29 84.6641C172.603 85.0254 172.977 85.2061 173.41 85.2061C173.458 85.2061 173.579 85.194 173.771 85.1699C173.964 85.1458 174.085 85.1338 174.133 85.1338C174.952 84.5798 175.771 83.9775 176.59 83.3271C177.433 82.6768 178.3 82.0745 179.191 81.5205C180.083 80.9424 181.01 80.4606 181.974 80.0752C182.937 79.6657 183.937 79.4609 184.973 79.4609V81.2314C184.973 81.3278 184.732 81.5928 184.25 82.0264C183.792 82.46 183.178 82.9658 182.407 83.5439C181.66 84.1221 180.817 84.7363 179.878 85.3867C178.938 86.0371 177.999 86.6393 177.06 87.1934C176.12 87.7233 175.217 88.1689 174.35 88.5303C173.507 88.8916 172.796 89.0723 172.218 89.0723C171.399 89.0723 170.664 88.7109 170.014 87.9883C169.387 87.2415 168.821 86.266 168.315 85.0615C167.81 83.833 167.388 82.4238 167.051 80.834C166.714 79.2441 166.412 77.6061 166.147 75.9199C165.907 74.2337 165.702 72.5596 165.533 70.8975C165.389 69.2113 165.268 67.6576 165.172 66.2363C165.076 64.8151 165.003 63.5866 164.955 62.5508C164.931 61.4909 164.907 60.7562 164.883 60.3467Z" fill="white"/>
</svg>
