<svg width="167" height="27" viewBox="0 0 167 27" fill="none" xmlns="http://www.w3.org/2000/svg">
<path d="M0.0442969 21V1.68H3.4043L9.5243 14.19L15.6143 1.68H18.9743V21H15.7343V6.99L10.5143 17.67H8.5343L3.2843 6.99V21H0.0442969ZM24.9047 26.28C23.8247 26.28 22.9047 26.14 22.1447 25.86V23.43C22.4847 23.55 22.7947 23.63 23.0747 23.67C23.3747 23.71 23.6747 23.73 23.9747 23.73C24.5947 23.73 25.0947 23.63 25.4747 23.43C25.8547 23.23 26.1847 22.91 26.4647 22.47C26.7647 22.05 27.0847 21.5 27.4247 20.82L21.0947 6.78H24.4847L29.0447 17.34L33.6647 6.78H37.0247L31.2347 20.19C30.7347 21.39 30.1947 22.44 29.6147 23.34C29.0547 24.26 28.3947 24.98 27.6347 25.5C26.8947 26.02 25.9847 26.28 24.9047 26.28ZM51.5484 21V4.23H45.3684V1.68H60.9684V4.23H54.8184V21H51.5484ZM65.1874 21.3C64.2874 21.3 63.4474 21.14 62.6674 20.82C61.9074 20.5 61.2974 20.02 60.8374 19.38C60.3774 18.72 60.1474 17.91 60.1474 16.95C60.1474 15.59 60.6074 14.5 61.5274 13.68C62.4674 12.84 63.9074 12.42 65.8474 12.42H70.4074V11.79C70.4074 11.11 70.2974 10.57 70.0774 10.17C69.8774 9.77 69.4974 9.48 68.9374 9.3C68.3974 9.12 67.5974 9.03 66.5374 9.03C64.8574 9.03 63.2874 9.28 61.8274 9.78V7.35C62.4674 7.09 63.2474 6.88 64.1674 6.72C65.0874 6.56 66.0774 6.48 67.1374 6.48C69.2174 6.48 70.7974 6.9 71.8774 7.74C72.9774 8.58 73.5274 9.95 73.5274 11.85V21H70.7374L70.5274 19.56C69.9474 20.12 69.2274 20.55 68.3674 20.85C67.5274 21.15 66.4674 21.3 65.1874 21.3ZM66.0574 18.96C67.0374 18.96 67.8874 18.8 68.6074 18.48C69.3474 18.14 69.9474 17.69 70.4074 17.13V14.64H65.9074C64.9474 14.64 64.2474 14.83 63.8074 15.21C63.3874 15.57 63.1774 16.13 63.1774 16.89C63.1774 17.63 63.4274 18.16 63.9274 18.48C64.4274 18.8 65.1374 18.96 66.0574 18.96ZM81.8937 21.3C80.9137 21.3 79.9737 21.23 79.0737 21.09C78.1937 20.95 77.4637 20.78 76.8837 20.58V17.82C77.5637 18.08 78.3137 18.28 79.1337 18.42C79.9537 18.56 80.7337 18.63 81.4737 18.63C82.5937 18.63 83.3937 18.53 83.8737 18.33C84.3537 18.13 84.5937 17.74 84.5937 17.16C84.5937 16.74 84.4437 16.41 84.1437 16.17C83.8637 15.93 83.4337 15.71 82.8537 15.51C82.2937 15.31 81.5737 15.07 80.6937 14.79C79.8537 14.51 79.1237 14.21 78.5037 13.89C77.8837 13.55 77.4037 13.12 77.0637 12.6C76.7237 12.08 76.5537 11.4 76.5537 10.56C76.5537 9.26 77.0237 8.26 77.9637 7.56C78.9037 6.84 80.4137 6.48 82.4937 6.48C83.3137 6.48 84.0937 6.54 84.8337 6.66C85.5737 6.78 86.2037 6.93 86.7237 7.11V9.84C86.1637 9.62 85.5437 9.45 84.8637 9.33C84.2037 9.21 83.5837 9.15 83.0037 9.15C81.9637 9.15 81.1737 9.24 80.6337 9.42C80.1137 9.6 79.8537 9.96 79.8537 10.5C79.8537 11.06 80.1237 11.46 80.6637 11.7C81.2237 11.92 82.1137 12.23 83.3337 12.63C84.4537 12.97 85.3437 13.33 86.0037 13.71C86.6637 14.09 87.1337 14.55 87.4137 15.09C87.7137 15.61 87.8637 16.29 87.8637 17.13C87.8637 18.53 87.3537 19.58 86.3337 20.28C85.3137 20.96 83.8337 21.3 81.8937 21.3ZM91.0697 21V0.779999H94.3397V12.48L100.31 6.78H104.06L98.2697 12.51L104.39 21H100.94L96.2297 14.25L94.3397 16.05V21H91.0697ZM106.583 14.19V11.64H118.043V14.19H106.583ZM121.216 21V1.68H124.486V18.48H134.386V21H121.216ZM137.123 3.81V1.11H140.693V3.81H137.123ZM137.393 21V9.27H135.233L135.533 6.78H140.663V21H137.393ZM149.218 21.3C148.238 21.3 147.298 21.23 146.398 21.09C145.518 20.95 144.788 20.78 144.208 20.58V17.82C144.888 18.08 145.638 18.28 146.458 18.42C147.278 18.56 148.058 18.63 148.798 18.63C149.918 18.63 150.718 18.53 151.198 18.33C151.678 18.13 151.918 17.74 151.918 17.16C151.918 16.74 151.768 16.41 151.468 16.17C151.188 15.93 150.758 15.71 150.178 15.51C149.618 15.31 148.898 15.07 148.018 14.79C147.178 14.51 146.448 14.21 145.828 13.89C145.208 13.55 144.728 13.12 144.388 12.6C144.048 12.08 143.878 11.4 143.878 10.56C143.878 9.26 144.348 8.26 145.288 7.56C146.228 6.84 147.738 6.48 149.818 6.48C150.638 6.48 151.418 6.54 152.158 6.66C152.898 6.78 153.528 6.93 154.048 7.11V9.84C153.488 9.62 152.868 9.45 152.188 9.33C151.528 9.21 150.908 9.15 150.328 9.15C149.288 9.15 148.498 9.24 147.958 9.42C147.438 9.6 147.178 9.96 147.178 10.5C147.178 11.06 147.448 11.46 147.988 11.7C148.548 11.92 149.438 12.23 150.658 12.63C151.778 12.97 152.668 13.33 153.328 13.71C153.988 14.09 154.458 14.55 154.738 15.09C155.038 15.61 155.188 16.29 155.188 17.13C155.188 18.53 154.678 19.58 153.658 20.28C152.638 20.96 151.158 21.3 149.218 21.3ZM163.384 21.3C161.864 21.3 160.724 20.9 159.964 20.1C159.224 19.28 158.854 18.17 158.854 16.77V9.33H156.754V6.78H158.854V3.51L162.094 2.52V6.78H165.874L165.664 9.33H162.094V16.59C162.094 17.41 162.284 17.99 162.664 18.33C163.044 18.65 163.664 18.81 164.524 18.81C165.064 18.81 165.634 18.71 166.234 18.51V20.82C165.454 21.14 164.504 21.3 163.384 21.3Z" fill="white"/>
</svg>
