<svg width="156" height="24" viewBox="0 0 156 24" fill="none" xmlns="http://www.w3.org/2000/svg">
<path d="M0.0413438 19V0.967999H3.17734L8.88934 12.644L14.5733 0.967999H17.7093V19H14.6853V5.924L9.81334 15.892H7.96534L3.06534 5.924V19H0.0413438ZM23.2444 23.928C22.2364 23.928 21.3777 23.7973 20.6684 23.536V21.268C20.9857 21.38 21.275 21.4547 21.5364 21.492C21.8164 21.5293 22.0964 21.548 22.3764 21.548C22.955 21.548 23.4217 21.4547 23.7764 21.268C24.131 21.0813 24.439 20.7827 24.7004 20.372C24.9804 19.98 25.279 19.4667 25.5964 18.832L19.6884 5.728H22.8524L27.1084 15.584L31.4204 5.728H34.5564L29.1524 18.244C28.6857 19.364 28.1817 20.344 27.6404 21.184C27.1177 22.0427 26.5017 22.7147 25.7924 23.2C25.1017 23.6853 24.2524 23.928 23.2444 23.928ZM48.1119 19V3.348H42.3439V0.967999H56.9039V3.348H51.1639V19H48.1119ZM60.8416 19.28C60.0016 19.28 59.2176 19.1307 58.4896 18.832C57.7803 18.5333 57.2109 18.0853 56.7816 17.488C56.3523 16.872 56.1376 16.116 56.1376 15.22C56.1376 13.9507 56.5669 12.9333 57.4256 12.168C58.3029 11.384 59.6469 10.992 61.4576 10.992H65.7136V10.404C65.7136 9.76933 65.6109 9.26533 65.4056 8.892C65.2189 8.51867 64.8643 8.248 64.3416 8.08C63.8376 7.912 63.0909 7.828 62.1016 7.828C60.5336 7.828 59.0683 8.06133 57.7056 8.528V6.26C58.3029 6.01733 59.0309 5.82133 59.8896 5.672C60.7483 5.52267 61.6723 5.448 62.6616 5.448C64.6029 5.448 66.0776 5.84 67.0856 6.624C68.1123 7.408 68.6256 8.68667 68.6256 10.46V19H66.0216L65.8256 17.656C65.2843 18.1787 64.6123 18.58 63.8096 18.86C63.0256 19.14 62.0363 19.28 60.8416 19.28ZM61.6536 17.096C62.5683 17.096 63.3616 16.9467 64.0336 16.648C64.7243 16.3307 65.2843 15.9107 65.7136 15.388V13.064H61.5136C60.6176 13.064 59.9643 13.2413 59.5536 13.596C59.1616 13.932 58.9656 14.4547 58.9656 15.164C58.9656 15.8547 59.1989 16.3493 59.6656 16.648C60.1323 16.9467 60.7949 17.096 61.6536 17.096ZM76.4341 19.28C75.5194 19.28 74.6421 19.2147 73.8021 19.084C72.9808 18.9533 72.2994 18.7947 71.7581 18.608V16.032C72.3928 16.2747 73.0928 16.4613 73.8581 16.592C74.6234 16.7227 75.3514 16.788 76.0421 16.788C77.0874 16.788 77.8341 16.6947 78.2821 16.508C78.7301 16.3213 78.9541 15.9573 78.9541 15.416C78.9541 15.024 78.8141 14.716 78.5341 14.492C78.2728 14.268 77.8714 14.0627 77.3301 13.876C76.8074 13.6893 76.1354 13.4653 75.3141 13.204C74.5301 12.9427 73.8488 12.6627 73.2701 12.364C72.6914 12.0467 72.2434 11.6453 71.9261 11.16C71.6088 10.6747 71.4501 10.04 71.4501 9.256C71.4501 8.04267 71.8888 7.10933 72.7661 6.456C73.6434 5.784 75.0528 5.448 76.9941 5.448C77.7594 5.448 78.4874 5.504 79.1781 5.616C79.8688 5.728 80.4568 5.868 80.9421 6.036V8.584C80.4194 8.37867 79.8408 8.22 79.2061 8.108C78.5901 7.996 78.0114 7.94 77.4701 7.94C76.4994 7.94 75.7621 8.024 75.2581 8.192C74.7728 8.36 74.5301 8.696 74.5301 9.2C74.5301 9.72267 74.7821 10.096 75.2861 10.32C75.8088 10.5253 76.6394 10.8147 77.7781 11.188C78.8234 11.5053 79.6541 11.8413 80.2701 12.196C80.8861 12.5507 81.3248 12.98 81.5861 13.484C81.8661 13.9693 82.0061 14.604 82.0061 15.388C82.0061 16.6947 81.5301 17.6747 80.5781 18.328C79.6261 18.9627 78.2448 19.28 76.4341 19.28ZM84.9984 19V0.127999H88.0504V11.048L93.6224 5.728H97.1224L91.7184 11.076L97.4304 19H94.2104L89.8144 12.7L88.0504 14.38V19H84.9984ZM99.4774 12.644V10.264H110.173V12.644H99.4774ZM113.135 19V0.967999H116.187V16.648H125.427V19H113.135ZM127.982 2.956V0.435999H131.314V2.956H127.982ZM128.234 19V8.052H126.218L126.498 5.728H131.286V19H128.234ZM139.27 19.28C138.355 19.28 137.478 19.2147 136.638 19.084C135.817 18.9533 135.135 18.7947 134.594 18.608V16.032C135.229 16.2747 135.929 16.4613 136.694 16.592C137.459 16.7227 138.187 16.788 138.878 16.788C139.923 16.788 140.67 16.6947 141.118 16.508C141.566 16.3213 141.79 15.9573 141.79 15.416C141.79 15.024 141.65 14.716 141.37 14.492C141.109 14.268 140.707 14.0627 140.166 13.876C139.643 13.6893 138.971 13.4653 138.15 13.204C137.366 12.9427 136.685 12.6627 136.106 12.364C135.527 12.0467 135.079 11.6453 134.762 11.16C134.445 10.6747 134.286 10.04 134.286 9.256C134.286 8.04267 134.725 7.10933 135.602 6.456C136.479 5.784 137.889 5.448 139.83 5.448C140.595 5.448 141.323 5.504 142.014 5.616C142.705 5.728 143.293 5.868 143.778 6.036V8.584C143.255 8.37867 142.677 8.22 142.042 8.108C141.426 7.996 140.847 7.94 140.306 7.94C139.335 7.94 138.598 8.024 138.094 8.192C137.609 8.36 137.366 8.696 137.366 9.2C137.366 9.72267 137.618 10.096 138.122 10.32C138.645 10.5253 139.475 10.8147 140.614 11.188C141.659 11.5053 142.49 11.8413 143.106 12.196C143.722 12.5507 144.161 12.98 144.422 13.484C144.702 13.9693 144.842 14.604 144.842 15.388C144.842 16.6947 144.366 17.6747 143.414 18.328C142.462 18.9627 141.081 19.28 139.27 19.28ZM152.492 19.28C151.073 19.28 150.009 18.9067 149.3 18.16C148.609 17.3947 148.264 16.3587 148.264 15.052V8.108H146.304V5.728H148.264V2.676L151.288 1.752V5.728H154.816L154.62 8.108H151.288V14.884C151.288 15.6493 151.465 16.1907 151.82 16.508C152.175 16.8067 152.753 16.956 153.556 16.956C154.06 16.956 154.592 16.8627 155.152 16.676V18.832C154.424 19.1307 153.537 19.28 152.492 19.28Z" fill="white"/>
</svg>
